<?xml version="1.0" standalone="no"?>
<!DOCTYPE svg PUBLIC "-//W3C//DTD SVG 20010904//EN"
 "http://www.w3.org/TR/2001/REC-SVG-20010904/DTD/svg10.dtd">
<svg version="1.0" xmlns="http://www.w3.org/2000/svg"
 width="276.000000pt" height="276.000000pt" viewBox="0 0 276.000000 276.000000"
 preserveAspectRatio="xMidYMid meet">
<metadata>
Created by potrace 1.11, written by Peter Selinger 2001-2013
</metadata>
<g transform="translate(0.000000,276.000000) scale(0.100000,-0.100000)"
fill="#000000" stroke="none">
<path d="M1019 2456 c-2 -2 -29 -6 -59 -9 -232 -23 -447 -196 -525 -424 -29
-84 -37 -130 -36 -213 2 -152 53 -289 155 -414 71 -87 207 -169 334 -201 79
-20 220 -21 290 -2 36 10 52 11 53 3 0 -6 2 -166 3 -356 2 -190 4 -352 4 -361
5 -45 126 -118 249 -150 266 -69 538 36 694 269 196 293 108 696 -193 886
-205 130 -458 132 -673 5 -98 -57 -143 -77 -197 -87 -228 -43 -446 102 -493
327 -56 272 157 519 435 505 79 -5 117 -16 199 -61 50 -28 70 -34 99 -30 69
12 109 83 81 148 -28 68 -213 152 -349 158 -30 2 -58 4 -61 7 -3 2 -8 2 -10 0z
m761 -1111 c188 -67 304 -244 286 -439 -12 -132 -100 -267 -216 -330 -99 -54
-235 -65 -342 -28 l-53 18 0 380 0 379 65 21 c77 25 189 25 260 -1z"/>
</g>
</svg>
