<?xml version="1.0" standalone="no"?>
<!DOCTYPE svg PUBLIC "-//W3C//DTD SVG 20010904//EN"
 "http://www.w3.org/TR/2001/REC-SVG-20010904/DTD/svg10.dtd">
<svg version="1.0" xmlns="http://www.w3.org/2000/svg"
 width="260.000000pt" height="260.000000pt" viewBox="0 0 260.000000 260.000000"
 preserveAspectRatio="xMidYMid meet">
<metadata>
Created by potrace 1.11, written by Peter Selinger 2001-2013
</metadata>
<g transform="translate(0.000000,260.000000) scale(0.100000,-0.100000)"
fill="#000000" stroke="none">
<path d="M1812 2444 c-81 -45 -83 -46 -76 -77 3 -17 19 -60 34 -96 l28 -66
-20 -36 c-19 -34 -25 -37 -77 -43 -147 -17 -143 -13 -143 -123 -1 -50 2 -95 5
-100 7 -11 45 -20 112 -29 73 -9 83 -14 103 -48 l20 -34 -35 -86 c-19 -48 -33
-92 -31 -98 2 -6 42 -33 89 -60 l84 -48 42 47 c24 27 53 62 65 79 19 28 27 31
66 29 24 -1 47 -6 51 -12 29 -43 103 -132 113 -135 7 -3 49 16 93 42 76 44 80
48 77 79 -1 17 -15 60 -31 95 l-28 63 18 36 c21 39 28 43 112 52 67 7 107 20
108 35 0 5 1 49 2 98 l1 87 -35 12 c-19 6 -63 15 -99 18 -63 7 -67 9 -86 44
l-20 37 27 66 c51 124 52 119 -42 172 -45 25 -85 46 -88 46 -9 0 -72 -67 -106
-112 -24 -33 -33 -38 -69 -38 -39 0 -44 4 -101 75 -33 41 -64 75 -70 75 -5 0
-47 -21 -93 -46z m341 -290 c67 -35 101 -96 95 -170 -8 -95 -77 -157 -175
-157 -146 0 -227 175 -130 282 56 61 143 79 210 45z"/>
<path d="M712 2158 c-16 -21 -21 -44 -37 -173 -4 -27 -10 -53 -13 -56 -4 -3
-28 -13 -54 -23 l-47 -17 -86 65 c-48 36 -90 66 -95 66 -23 0 -156 -124 -208
-193 -25 -34 -22 -45 35 -115 79 -98 78 -95 54 -155 l-22 -54 -105 -16 c-58
-8 -112 -21 -120 -28 -11 -9 -14 -41 -14 -148 0 -75 4 -142 9 -149 7 -11 90
-30 191 -44 38 -5 45 -13 65 -71 l18 -54 -61 -79 c-34 -44 -62 -88 -62 -98 0
-10 46 -65 103 -123 83 -83 107 -102 123 -97 10 4 54 34 97 67 l79 59 46 -17
c26 -10 50 -21 54 -24 4 -4 15 -54 24 -111 9 -58 21 -111 26 -117 8 -9 50 -13
147 -13 95 0 142 4 153 13 15 11 29 76 43 187 5 39 17 51 73 69 l40 13 86 -66
c86 -65 87 -66 116 -51 48 25 200 186 200 212 0 13 -19 47 -43 76 -23 28 -52
66 -63 82 l-21 30 24 51 23 52 78 11 c126 19 136 21 148 37 8 10 12 64 12 150
0 141 -7 163 -46 165 -9 0 -26 2 -37 4 -11 2 -42 7 -69 10 -61 8 -96 21 -96
35 0 6 -9 29 -19 51 l-20 40 65 84 c35 47 64 92 64 100 0 9 -46 63 -103 121
-83 84 -107 104 -122 98 -11 -4 -53 -31 -93 -61 -89 -66 -92 -67 -128 -48 -16
8 -34 15 -41 15 -18 0 -20 7 -39 120 -9 58 -21 111 -27 118 -7 8 -50 12 -152
12 -102 0 -145 -4 -153 -12z m301 -538 c66 -31 133 -99 165 -168 23 -49 27
-70 27 -147 0 -76 -4 -98 -26 -145 -31 -66 -96 -132 -164 -168 -45 -24 -61
-27 -150 -27 -118 0 -166 19 -243 94 -76 75 -97 127 -97 246 0 118 19 167 94
244 103 105 261 134 394 71z"/>
<path d="M1822 1064 c-46 -25 -86 -52 -88 -59 -3 -8 10 -52 30 -100 l35 -86
-20 -34 c-16 -26 -29 -36 -57 -40 -20 -3 -65 -11 -99 -17 l-63 -10 -1 -42 c-3
-101 2 -161 14 -168 6 -4 37 -10 67 -15 30 -4 58 -8 63 -9 4 -1 17 -2 30 -3
16 -1 30 -13 44 -38 l21 -38 -34 -80 c-18 -44 -33 -87 -34 -95 0 -14 153 -110
176 -110 5 0 36 34 69 75 57 71 62 75 101 75 38 0 43 -4 100 -75 32 -41 64
-74 71 -75 23 0 173 94 173 110 0 8 -15 51 -34 96 l-33 81 21 35 c19 33 25 36
81 42 82 9 135 24 136 39 1 15 1 168 0 183 -1 12 -34 21 -111 31 -25 3 -52 7
-60 9 -8 1 -18 3 -22 3 -3 1 -15 16 -25 34 l-20 33 33 84 c18 47 33 91 34 97
0 13 -42 42 -124 86 l-49 26 -22 -22 c-12 -12 -41 -46 -64 -76 -40 -51 -46
-55 -86 -56 -36 0 -46 4 -59 25 -8 14 -37 49 -63 78 l-48 52 -83 -46z m322
-293 c129 -57 142 -236 22 -306 -76 -45 -164 -29 -223 38 -72 83 -47 209 52
262 53 27 97 29 149 6z"/>
</g>
</svg>
